<svg width="18" height="18" viewBox="0 0 18 18" fill="none" xmlns="http://www.w3.org/2000/svg">
<g clip-path="url(#clip0)">
<path d="M11.9347 9.587H0.586956C0.262955 9.587 0 9.32404 0 9.00004C0 8.67604 0.262955 8.41309 0.586956 8.41309H11.9347C12.2587 8.41309 12.5217 8.67604 12.5217 9.00004C12.5217 9.32404 12.2587 9.587 11.9347 9.587Z" fill="white"/>
<path d="M8.80434 12.7174C8.65402 12.7174 8.50384 12.6603 8.38949 12.5453C8.16021 12.316 8.16021 11.9443 8.38949 11.7148L11.1052 8.99931L8.38949 6.28363C8.16021 6.05435 8.16021 5.68249 8.38949 5.45321C8.61891 5.22393 8.99063 5.22393 9.21991 5.45321L12.3503 8.58374C12.5796 8.81302 12.5796 9.18474 12.3503 9.41402L9.21991 12.5444C9.10484 12.6603 8.95466 12.7174 8.80434 12.7174Z" fill="white"/>
<path d="M9.3913 17.6087C5.82958 17.6087 2.68515 15.466 1.37897 12.1491C1.26003 11.8486 1.40863 11.5074 1.70999 11.3885C2.01049 11.2711 2.35255 11.4174 2.47149 11.7204C3.59926 14.5839 6.31565 16.4348 9.3913 16.4348C13.4905 16.4348 16.8261 13.0992 16.8261 8.99998C16.8261 4.90074 13.4905 1.56515 9.3913 1.56515C6.31565 1.56515 3.59926 3.41601 2.47149 6.27957C2.35169 6.58251 2.01049 6.72882 1.70999 6.61146C1.40863 6.49252 1.26003 6.15132 1.37897 5.85082C2.68515 2.534 5.82958 0.391235 9.3913 0.391235C14.1378 0.391235 18 4.25345 18 8.99998C18 13.7465 14.1378 17.6087 9.3913 17.6087Z" fill="white"/>
</g>
<defs>
<clipPath id="clip0">
<rect width="18" height="18" fill="white"/>
</clipPath>
</defs>
</svg>
