<svg width="17" height="17" viewBox="0 0 17 17" fill="none" xmlns="http://www.w3.org/2000/svg">
<path d="M14.2983 10.1337C13.9276 9.7491 13.4804 9.54346 13.0065 9.54346C12.5364 9.54346 12.0854 9.7453 11.6994 10.1299L10.4917 11.3295C10.3923 11.2762 10.2929 11.2267 10.1974 11.1772C10.0598 11.1086 9.92984 11.0439 9.81901 10.9754C8.68771 10.2594 7.65961 9.32639 6.67355 8.11918C6.19581 7.51747 5.87476 7.01098 5.64163 6.49686C5.95503 6.21125 6.24549 5.9142 6.52832 5.62858C6.63533 5.52195 6.74235 5.41151 6.84936 5.30488C7.65197 4.50515 7.65197 3.46931 6.84936 2.66958L5.80597 1.62993C5.68749 1.51187 5.56519 1.39001 5.45053 1.26815C5.22121 1.03203 4.98043 0.788306 4.732 0.559812C4.36128 0.19422 3.91793 0 3.45165 0C2.98538 0 2.53439 0.19422 2.15219 0.559812C2.14837 0.56362 2.14837 0.56362 2.14455 0.567428L0.845088 1.87366C0.35588 2.36111 0.0768778 2.9552 0.0157267 3.64449C-0.0759999 4.7565 0.252687 5.79234 0.504935 6.47021C1.12409 8.13441 2.049 9.67675 3.42872 11.3295C5.10273 13.3212 7.1169 14.894 9.41771 16.0022C10.2968 16.4173 11.4701 16.9086 12.781 16.9924C12.8613 16.9962 12.9454 17 13.0218 17C13.9047 17 14.6461 16.6839 15.2271 16.0556C15.2309 16.0479 15.2385 16.0441 15.2423 16.0365C15.4411 15.7966 15.6704 15.5795 15.9112 15.3472C16.0755 15.1911 16.2437 15.0273 16.408 14.856C16.7864 14.4637 16.9852 14.0067 16.9852 13.5383C16.9852 13.0661 16.7826 12.6129 16.3966 12.2321L14.2983 10.1337ZM15.6666 14.1438C15.6628 14.1438 15.6628 14.1476 15.6666 14.1438C15.5175 14.3038 15.3646 14.4485 15.2003 14.6084C14.9519 14.8445 14.6996 15.0921 14.4627 15.3701C14.0767 15.7814 13.6218 15.9756 13.0256 15.9756C12.9683 15.9756 12.9071 15.9756 12.8498 15.9718C11.7147 15.8994 10.6598 15.4577 9.86869 15.0806C7.70548 14.0372 5.80597 12.5558 4.22751 10.6783C2.92423 9.11313 2.05282 7.666 1.47571 6.11223C1.12027 5.16398 0.990322 4.42518 1.04765 3.72827C1.08587 3.28271 1.25786 2.91331 1.57508 2.59722L2.87836 1.29861C3.06564 1.12343 3.26438 1.02823 3.4593 1.02823C3.70008 1.02823 3.895 1.17294 4.0173 1.2948C4.02112 1.29861 4.02494 1.30242 4.02877 1.30623C4.26191 1.5233 4.48358 1.74798 4.71672 1.9879C4.8352 2.10977 4.9575 2.23163 5.0798 2.3573L6.12319 3.39695C6.52832 3.80063 6.52832 4.17384 6.12319 4.57751C6.01235 4.68795 5.90534 4.79839 5.7945 4.90502C5.47346 5.23253 5.16771 5.53719 4.8352 5.83423C4.82755 5.84185 4.81991 5.84565 4.81609 5.85327C4.4874 6.18078 4.54855 6.50067 4.61735 6.71774C4.62117 6.72917 4.62499 6.74059 4.62881 6.75202C4.90017 7.40703 5.28236 8.02397 5.8633 8.75896L5.86712 8.76277C6.92198 10.0576 8.03416 11.0668 9.26101 11.8398C9.41771 11.9388 9.57823 12.0188 9.7311 12.095C9.86869 12.1635 9.99864 12.2283 10.1095 12.2968C10.1248 12.3044 10.1401 12.3159 10.1553 12.3235C10.2853 12.3882 10.4076 12.4187 10.5337 12.4187C10.8509 12.4187 11.0497 12.2207 11.1146 12.1559L12.4218 10.8535C12.5517 10.724 12.7581 10.5679 12.9989 10.5679C13.2358 10.5679 13.4307 10.7164 13.5492 10.8459C13.553 10.8497 13.553 10.8497 13.5569 10.8535L15.6628 12.9518C16.0564 13.3403 16.0564 13.7401 15.6666 14.1438Z" fill="#C7AA5E"/>
</svg>
